<svg xmlns="http://www.w3.org/2000/svg" viewBox="0 0 64 64" fill="none">
  <rect x="8" y="8" width="48" height="48" rx="12" fill="#2496ed" opacity="0.15"/>
  <rect x="10" y="28" width="8" height="6" rx="1" fill="#2496ed"/>
  <rect x="20" y="28" width="8" height="6" rx="1" fill="#2496ed"/>
  <rect x="30" y="28" width="8" height="6" rx="1" fill="#2496ed"/>
  <rect x="20" y="20" width="8" height="6" rx="1" fill="#2496ed"/>
  <rect x="30" y="20" width="8" height="6" rx="1" fill="#2496ed"/>
  <rect x="30" y="12" width="8" height="6" rx="1" fill="#2496ed" opacity="0.6"/>
  <path d="M10 38 Q12 46 24 46 L48 46 Q56 42 54 34 L52 34 Q50 28 44 30 Q42 22 34 24" stroke="#2496ed" stroke-width="2" fill="none" stroke-linecap="round"/>
  <circle cx="50" cy="26" r="3" fill="#2496ed" opacity="0.6"/>
</svg>
