<svg xmlns="http://www.w3.org/2000/svg" viewBox="0 0 64 64" fill="none">
  <rect x="8" y="8" width="48" height="48" rx="12" fill="#ff007c" opacity="0.12"/>
  <rect x="14" y="28" width="36" height="4" rx="1" fill="#ff007c" opacity="0.4"/>
  <rect x="28" y="14" width="4" height="36" rx="1" fill="#ff007c" opacity="0.4"/>
  <circle cx="32" cy="32" r="8" fill="none" stroke="#ff007c" stroke-width="2"/>
  <circle cx="32" cy="32" r="3" fill="#ff007c"/>
  <rect x="10" y="10" width="8" height="2" rx="1" fill="#ff007c"/>
  <rect x="10" y="10" width="2" height="8" rx="1" fill="#ff007c"/>
  <rect x="46" y="10" width="8" height="2" rx="1" fill="#ff007c"/>
  <rect x="52" y="10" width="2" height="8" rx="1" fill="#ff007c"/>
  <rect x="10" y="52" width="8" height="2" rx="1" fill="#ff007c"/>
  <rect x="10" y="46" width="2" height="8" rx="1" fill="#ff007c"/>
  <rect x="46" y="52" width="8" height="2" rx="1" fill="#ff007c"/>
  <rect x="52" y="46" width="2" height="8" rx="1" fill="#ff007c"/>
</svg>
